<svg xmlns="http://www.w3.org/2000/svg" xmlns:xlink="http://www.w3.org/1999/xlink" width="500" zoomAndPan="magnify" viewBox="0 0 375 374.999991" height="500" preserveAspectRatio="xMidYMid meet" version="1.0"><defs><g/></defs><g fill="#f2eee3" fill-opacity="1"><g transform="translate(94.674101, 224.47566)"><g><path d="M 10.003906 0 L 20.507812 0 L 13.003906 -111.410156 C 12.878906 -113.535156 13.378906 -114.660156 14.253906 -114.660156 C 14.878906 -114.660156 15.753906 -114.035156 16.628906 -112.785156 C 47.765625 -68.773438 70.148438 -37.386719 96.65625 0 L 106.660156 0 L 106.660156 -125.039062 L 96.15625 -125.039062 L 103.65625 -13.628906 C 103.78125 -11.503906 103.28125 -10.378906 102.40625 -10.378906 C 101.78125 -10.378906 100.90625 -11.003906 100.03125 -12.253906 C 71.523438 -52.515625 45.640625 -89.027344 20.257812 -125.039062 L 10.003906 -125.039062 Z M 10.003906 0 "/></g></g></g><g fill="#f2eee3" fill-opacity="1"><g transform="translate(127.551437, 260.010041)"><g><path d="M 7.90625 -14.125 C 9.320312 -14.125 10.460938 -13.691406 11.328125 -12.828125 C 12.191406 -11.960938 12.625 -10.816406 12.625 -9.390625 L 12.625 -0.328125 C 12.625 -0.234375 12.59375 -0.15625 12.53125 -0.09375 C 12.46875 -0.03125 12.390625 0 12.296875 0 L 11.5 0 C 11.40625 0 11.328125 -0.03125 11.265625 -0.09375 C 11.203125 -0.15625 11.171875 -0.234375 11.171875 -0.328125 L 11.171875 -9.125 C 11.171875 -10.207031 10.835938 -11.09375 10.171875 -11.78125 C 9.503906 -12.476562 8.644531 -12.828125 7.59375 -12.828125 C 6.476562 -12.828125 5.578125 -12.488281 4.890625 -11.8125 C 4.210938 -11.144531 3.875 -10.265625 3.875 -9.171875 L 3.875 -0.328125 C 3.875 -0.234375 3.835938 -0.15625 3.765625 -0.09375 C 3.703125 -0.03125 3.625 0 3.53125 0 L 2.734375 0 C 2.640625 0 2.5625 -0.03125 2.5 -0.09375 C 2.4375 -0.15625 2.40625 -0.234375 2.40625 -0.328125 L 2.40625 -13.59375 C 2.40625 -13.6875 2.4375 -13.765625 2.5 -13.828125 C 2.5625 -13.898438 2.640625 -13.9375 2.734375 -13.9375 L 3.53125 -13.9375 C 3.625 -13.9375 3.703125 -13.898438 3.765625 -13.828125 C 3.835938 -13.765625 3.875 -13.6875 3.875 -13.59375 L 3.875 -12.296875 C 3.875 -12.242188 3.882812 -12.210938 3.90625 -12.203125 C 3.9375 -12.191406 3.960938 -12.207031 3.984375 -12.25 C 4.390625 -12.851562 4.925781 -13.316406 5.59375 -13.640625 C 6.269531 -13.960938 7.039062 -14.125 7.90625 -14.125 Z M 7.90625 -14.125 "/></g></g></g><g fill="#f2eee3" fill-opacity="1"><g transform="translate(141.511825, 260.010041)"><g><path d="M 10.953125 -13.59375 C 10.953125 -13.6875 10.984375 -13.765625 11.046875 -13.828125 C 11.109375 -13.898438 11.1875 -13.9375 11.28125 -13.9375 L 12.046875 -13.9375 C 12.140625 -13.9375 12.21875 -13.898438 12.28125 -13.828125 C 12.351562 -13.765625 12.390625 -13.6875 12.390625 -13.59375 L 12.390625 -0.328125 C 12.390625 -0.234375 12.351562 -0.15625 12.28125 -0.09375 C 12.21875 -0.03125 12.140625 0 12.046875 0 L 11.28125 0 C 11.1875 0 11.109375 -0.03125 11.046875 -0.09375 C 10.984375 -0.15625 10.953125 -0.234375 10.953125 -0.328125 L 10.953125 -1.625 C 10.953125 -1.6875 10.929688 -1.71875 10.890625 -1.71875 C 10.847656 -1.726562 10.820312 -1.707031 10.8125 -1.65625 C 10.425781 -1.050781 9.90625 -0.59375 9.25 -0.28125 C 8.59375 0.03125 7.820312 0.1875 6.9375 0.1875 C 5.570312 0.1875 4.4375 -0.210938 3.53125 -1.015625 C 2.632812 -1.828125 2.1875 -2.945312 2.1875 -4.375 L 2.1875 -13.59375 C 2.1875 -13.6875 2.21875 -13.765625 2.28125 -13.828125 C 2.34375 -13.898438 2.421875 -13.9375 2.515625 -13.9375 L 3.296875 -13.9375 C 3.378906 -13.9375 3.453125 -13.898438 3.515625 -13.828125 C 3.585938 -13.765625 3.625 -13.6875 3.625 -13.59375 L 3.625 -4.75 C 3.625 -3.644531 3.945312 -2.757812 4.59375 -2.09375 C 5.25 -1.4375 6.125 -1.109375 7.21875 -1.109375 C 8.34375 -1.109375 9.242188 -1.441406 9.921875 -2.109375 C 10.609375 -2.785156 10.953125 -3.664062 10.953125 -4.75 Z M 10.953125 -13.59375 "/></g></g></g><g fill="#f2eee3" fill-opacity="1"><g transform="translate(155.416926, 260.010041)"><g><path d="M 16.21875 -14.125 C 17.570312 -14.125 18.648438 -13.71875 19.453125 -12.90625 C 20.265625 -12.09375 20.671875 -10.976562 20.671875 -9.5625 L 20.671875 -0.328125 C 20.671875 -0.234375 20.640625 -0.15625 20.578125 -0.09375 C 20.515625 -0.03125 20.4375 0 20.34375 0 L 19.5625 0 C 19.476562 0 19.398438 -0.03125 19.328125 -0.09375 C 19.265625 -0.15625 19.234375 -0.234375 19.234375 -0.328125 L 19.234375 -9.28125 C 19.234375 -10.375 18.914062 -11.238281 18.28125 -11.875 C 17.644531 -12.507812 16.820312 -12.828125 15.8125 -12.828125 C 14.738281 -12.828125 13.875 -12.515625 13.21875 -11.890625 C 12.570312 -11.265625 12.25 -10.414062 12.25 -9.34375 L 12.25 -0.328125 C 12.25 -0.234375 12.210938 -0.15625 12.140625 -0.09375 C 12.078125 -0.03125 12 0 11.90625 0 L 11.140625 0 C 11.046875 0 10.96875 -0.03125 10.90625 -0.09375 C 10.84375 -0.15625 10.8125 -0.234375 10.8125 -0.328125 L 10.8125 -9.28125 C 10.8125 -10.375 10.492188 -11.238281 9.859375 -11.875 C 9.234375 -12.507812 8.414062 -12.828125 7.40625 -12.828125 C 6.320312 -12.828125 5.460938 -12.515625 4.828125 -11.890625 C 4.191406 -11.265625 3.875 -10.414062 3.875 -9.34375 L 3.875 -0.328125 C 3.875 -0.234375 3.835938 -0.15625 3.765625 -0.09375 C 3.703125 -0.03125 3.625 0 3.53125 0 L 2.734375 0 C 2.640625 0 2.5625 -0.03125 2.5 -0.09375 C 2.4375 -0.15625 2.40625 -0.234375 2.40625 -0.328125 L 2.40625 -13.59375 C 2.40625 -13.6875 2.4375 -13.765625 2.5 -13.828125 C 2.5625 -13.898438 2.640625 -13.9375 2.734375 -13.9375 L 3.53125 -13.9375 C 3.625 -13.9375 3.703125 -13.898438 3.765625 -13.828125 C 3.835938 -13.765625 3.875 -13.6875 3.875 -13.59375 L 3.875 -12.40625 C 3.875 -12.375 3.890625 -12.347656 3.921875 -12.328125 C 3.960938 -12.304688 3.992188 -12.316406 4.015625 -12.359375 C 4.398438 -12.941406 4.914062 -13.378906 5.5625 -13.671875 C 6.21875 -13.972656 6.960938 -14.125 7.796875 -14.125 C 8.753906 -14.125 9.578125 -13.914062 10.265625 -13.5 C 10.960938 -13.082031 11.484375 -12.5 11.828125 -11.75 C 11.867188 -11.675781 11.914062 -11.664062 11.96875 -11.71875 C 12.351562 -12.507812 12.914062 -13.109375 13.65625 -13.515625 C 14.394531 -13.921875 15.25 -14.125 16.21875 -14.125 Z M 16.21875 -14.125 "/></g></g></g><g fill="#f2eee3" fill-opacity="1"><g transform="translate(177.394207, 260.010041)"><g><path d="M 12.71875 -10.421875 C 12.820312 -9.992188 12.890625 -9.515625 12.921875 -8.984375 C 12.960938 -8.453125 12.984375 -7.769531 12.984375 -6.9375 C 12.984375 -5.382812 12.882812 -4.222656 12.6875 -3.453125 C 12.375 -2.328125 11.785156 -1.429688 10.921875 -0.765625 C 10.054688 -0.109375 8.992188 0.21875 7.734375 0.21875 C 6.921875 0.21875 6.195312 0.0507812 5.5625 -0.28125 C 4.925781 -0.613281 4.410156 -1.082031 4.015625 -1.6875 C 3.972656 -1.71875 3.9375 -1.726562 3.90625 -1.71875 C 3.882812 -1.71875 3.875 -1.6875 3.875 -1.625 L 3.875 -0.328125 C 3.875 -0.234375 3.835938 -0.15625 3.765625 -0.09375 C 3.703125 -0.03125 3.625 0 3.53125 0 L 2.734375 0 C 2.640625 0 2.5625 -0.03125 2.5 -0.09375 C 2.4375 -0.15625 2.40625 -0.234375 2.40625 -0.328125 L 2.40625 -19.015625 C 2.40625 -19.109375 2.4375 -19.1875 2.5 -19.25 C 2.5625 -19.3125 2.640625 -19.34375 2.734375 -19.34375 L 3.53125 -19.34375 C 3.625 -19.34375 3.703125 -19.3125 3.765625 -19.25 C 3.835938 -19.1875 3.875 -19.109375 3.875 -19.015625 L 3.875 -12.328125 C 3.875 -12.285156 3.890625 -12.253906 3.921875 -12.234375 C 3.960938 -12.222656 3.992188 -12.234375 4.015625 -12.265625 C 4.410156 -12.878906 4.925781 -13.347656 5.5625 -13.671875 C 6.195312 -13.992188 6.921875 -14.15625 7.734375 -14.15625 C 9.003906 -14.15625 10.078125 -13.816406 10.953125 -13.140625 C 11.828125 -12.472656 12.414062 -11.566406 12.71875 -10.421875 Z M 11.171875 -3.671875 C 11.296875 -4.078125 11.382812 -4.492188 11.4375 -4.921875 C 11.5 -5.359375 11.53125 -6.039062 11.53125 -6.96875 C 11.53125 -7.945312 11.492188 -8.65625 11.421875 -9.09375 C 11.359375 -9.53125 11.242188 -9.945312 11.078125 -10.34375 C 10.859375 -11.070312 10.4375 -11.671875 9.8125 -12.140625 C 9.1875 -12.617188 8.441406 -12.859375 7.578125 -12.859375 C 6.722656 -12.859375 6 -12.617188 5.40625 -12.140625 C 4.820312 -11.671875 4.4375 -11.0625 4.25 -10.3125 C 4.125 -9.9375 4.03125 -9.523438 3.96875 -9.078125 C 3.914062 -8.628906 3.890625 -7.914062 3.890625 -6.9375 C 3.890625 -6 3.910156 -5.304688 3.953125 -4.859375 C 4.003906 -4.421875 4.097656 -4.023438 4.234375 -3.671875 C 4.429688 -2.898438 4.820312 -2.273438 5.40625 -1.796875 C 5.988281 -1.316406 6.710938 -1.078125 7.578125 -1.078125 C 8.472656 -1.078125 9.242188 -1.316406 9.890625 -1.796875 C 10.535156 -2.273438 10.960938 -2.898438 11.171875 -3.671875 Z M 11.171875 -3.671875 "/></g></g></g><g fill="#f2eee3" fill-opacity="1"><g transform="translate(191.382246, 260.010041)"><g><path d="M 7.46875 0.21875 C 6.15625 0.21875 5.039062 -0.117188 4.125 -0.796875 C 3.21875 -1.484375 2.609375 -2.394531 2.296875 -3.53125 C 2.054688 -4.414062 1.9375 -5.570312 1.9375 -7 C 1.9375 -8.351562 2.054688 -9.492188 2.296875 -10.421875 C 2.585938 -11.546875 3.191406 -12.445312 4.109375 -13.125 C 5.035156 -13.8125 6.15625 -14.15625 7.46875 -14.15625 C 8.769531 -14.15625 9.894531 -13.820312 10.84375 -13.15625 C 11.789062 -12.488281 12.394531 -11.660156 12.65625 -10.671875 C 12.726562 -10.453125 12.785156 -10.210938 12.828125 -9.953125 L 12.828125 -9.890625 C 12.828125 -9.722656 12.722656 -9.625 12.515625 -9.59375 L 11.75 -9.484375 L 11.6875 -9.484375 C 11.519531 -9.484375 11.410156 -9.582031 11.359375 -9.78125 C 11.359375 -9.851562 11.34375 -9.960938 11.3125 -10.109375 C 11.144531 -10.890625 10.707031 -11.539062 10 -12.0625 C 9.300781 -12.59375 8.457031 -12.859375 7.46875 -12.859375 C 6.445312 -12.859375 5.597656 -12.585938 4.921875 -12.046875 C 4.253906 -11.515625 3.832031 -10.804688 3.65625 -9.921875 C 3.488281 -9.222656 3.40625 -8.238281 3.40625 -6.96875 C 3.40625 -5.675781 3.488281 -4.695312 3.65625 -4.03125 C 3.832031 -3.132812 4.253906 -2.414062 4.921875 -1.875 C 5.597656 -1.34375 6.445312 -1.078125 7.46875 -1.078125 C 8.457031 -1.078125 9.304688 -1.335938 10.015625 -1.859375 C 10.722656 -2.390625 11.15625 -3.050781 11.3125 -3.84375 L 11.328125 -3.953125 C 11.347656 -4.046875 11.394531 -4.113281 11.46875 -4.15625 C 11.539062 -4.207031 11.625 -4.222656 11.71875 -4.203125 L 12.46875 -4.125 C 12.5625 -4.101562 12.640625 -4.054688 12.703125 -3.984375 C 12.765625 -3.921875 12.785156 -3.835938 12.765625 -3.734375 L 12.65625 -3.296875 C 12.394531 -2.253906 11.789062 -1.40625 10.84375 -0.75 C 9.894531 -0.101562 8.769531 0.21875 7.46875 0.21875 Z M 7.46875 0.21875 "/></g></g></g><g fill="#f2eee3" fill-opacity="1"><g transform="translate(204.762099, 260.010041)"><g><path d="M 7.46875 0.21875 C 6.15625 0.21875 5.039062 -0.117188 4.125 -0.796875 C 3.21875 -1.484375 2.597656 -2.394531 2.265625 -3.53125 C 2.046875 -4.269531 1.9375 -5.425781 1.9375 -7 C 1.9375 -8.46875 2.035156 -9.609375 2.234375 -10.421875 C 2.566406 -11.566406 3.191406 -12.472656 4.109375 -13.140625 C 5.035156 -13.816406 6.15625 -14.15625 7.46875 -14.15625 C 8.75 -14.15625 9.851562 -13.8125 10.78125 -13.125 C 11.71875 -12.445312 12.34375 -11.546875 12.65625 -10.421875 C 12.863281 -9.679688 12.96875 -8.539062 12.96875 -7 C 12.96875 -5.425781 12.863281 -4.269531 12.65625 -3.53125 C 12.34375 -2.394531 11.71875 -1.484375 10.78125 -0.796875 C 9.851562 -0.117188 8.75 0.21875 7.46875 0.21875 Z M 7.46875 -1.078125 C 8.4375 -1.078125 9.265625 -1.34375 9.953125 -1.875 C 10.648438 -2.414062 11.101562 -3.132812 11.3125 -4.03125 C 11.414062 -4.550781 11.46875 -5.53125 11.46875 -6.96875 C 11.46875 -8.4375 11.414062 -9.410156 11.3125 -9.890625 C 11.101562 -10.796875 10.648438 -11.515625 9.953125 -12.046875 C 9.265625 -12.585938 8.425781 -12.859375 7.4375 -12.859375 C 6.4375 -12.859375 5.59375 -12.585938 4.90625 -12.046875 C 4.226562 -11.515625 3.789062 -10.796875 3.59375 -9.890625 C 3.476562 -9.410156 3.421875 -8.4375 3.421875 -6.96875 C 3.421875 -5.488281 3.476562 -4.507812 3.59375 -4.03125 C 3.789062 -3.132812 4.226562 -2.414062 4.90625 -1.875 C 5.59375 -1.34375 6.445312 -1.078125 7.46875 -1.078125 Z M 7.46875 -1.078125 "/></g></g></g><g fill="#f2eee3" fill-opacity="1"><g transform="translate(218.777775, 260.010041)"><g><path d="M 11 -19.015625 C 11 -19.109375 11.03125 -19.1875 11.09375 -19.25 C 11.15625 -19.3125 11.234375 -19.34375 11.328125 -19.34375 L 12.140625 -19.34375 C 12.222656 -19.34375 12.296875 -19.3125 12.359375 -19.25 C 12.429688 -19.1875 12.46875 -19.109375 12.46875 -19.015625 L 12.46875 -0.328125 C 12.46875 -0.234375 12.429688 -0.15625 12.359375 -0.09375 C 12.296875 -0.03125 12.222656 0 12.140625 0 L 11.328125 0 C 11.234375 0 11.15625 -0.03125 11.09375 -0.09375 C 11.03125 -0.15625 11 -0.234375 11 -0.328125 L 11 -1.625 C 11 -1.6875 10.984375 -1.71875 10.953125 -1.71875 C 10.929688 -1.726562 10.898438 -1.71875 10.859375 -1.6875 C 10.453125 -1.082031 9.929688 -0.613281 9.296875 -0.28125 C 8.660156 0.0507812 7.9375 0.21875 7.125 0.21875 C 5.875 0.21875 4.816406 -0.109375 3.953125 -0.765625 C 3.085938 -1.429688 2.5 -2.328125 2.1875 -3.453125 C 1.976562 -4.222656 1.875 -5.382812 1.875 -6.9375 C 1.875 -7.769531 1.890625 -8.453125 1.921875 -8.984375 C 1.960938 -9.515625 2.039062 -9.992188 2.15625 -10.421875 C 2.445312 -11.566406 3.03125 -12.472656 3.90625 -13.140625 C 4.78125 -13.816406 5.851562 -14.15625 7.125 -14.15625 C 7.9375 -14.15625 8.660156 -13.992188 9.296875 -13.671875 C 9.929688 -13.347656 10.453125 -12.878906 10.859375 -12.265625 C 10.878906 -12.234375 10.90625 -12.222656 10.9375 -12.234375 C 10.976562 -12.253906 11 -12.285156 11 -12.328125 Z M 10.640625 -3.671875 C 10.765625 -4.023438 10.847656 -4.421875 10.890625 -4.859375 C 10.941406 -5.304688 10.96875 -6 10.96875 -6.9375 C 10.96875 -7.914062 10.941406 -8.628906 10.890625 -9.078125 C 10.835938 -9.523438 10.742188 -9.9375 10.609375 -10.3125 C 10.429688 -11.0625 10.046875 -11.671875 9.453125 -12.140625 C 8.859375 -12.617188 8.140625 -12.859375 7.296875 -12.859375 C 6.429688 -12.859375 5.6875 -12.617188 5.0625 -12.140625 C 4.4375 -11.671875 4.007812 -11.070312 3.78125 -10.34375 C 3.613281 -9.945312 3.5 -9.53125 3.4375 -9.09375 C 3.375 -8.65625 3.34375 -7.945312 3.34375 -6.96875 C 3.34375 -6.039062 3.367188 -5.359375 3.421875 -4.921875 C 3.484375 -4.492188 3.578125 -4.078125 3.703125 -3.671875 C 3.910156 -2.898438 4.332031 -2.273438 4.96875 -1.796875 C 5.613281 -1.316406 6.390625 -1.078125 7.296875 -1.078125 C 8.160156 -1.078125 8.882812 -1.316406 9.46875 -1.796875 C 10.050781 -2.273438 10.441406 -2.898438 10.640625 -3.671875 Z M 10.640625 -3.671875 "/></g></g></g><g fill="#f2eee3" fill-opacity="1"><g transform="translate(232.765813, 260.010041)"><g><path d="M 7.515625 -1.046875 C 8.421875 -1.066406 9.195312 -1.273438 9.84375 -1.671875 C 10.488281 -2.066406 10.96875 -2.613281 11.28125 -3.3125 C 11.382812 -3.5 11.53125 -3.554688 11.71875 -3.484375 L 12.21875 -3.296875 C 12.4375 -3.203125 12.5 -3.050781 12.40625 -2.84375 C 12 -1.90625 11.363281 -1.160156 10.5 -0.609375 C 9.632812 -0.0546875 8.601562 0.21875 7.40625 0.21875 C 6.132812 0.21875 5.0625 -0.09375 4.1875 -0.71875 C 3.3125 -1.34375 2.695312 -2.203125 2.34375 -3.296875 C 2.09375 -4.140625 1.96875 -5.375 1.96875 -7 C 1.96875 -7.894531 1.976562 -8.570312 2 -9.03125 C 2.03125 -9.5 2.09375 -9.925781 2.1875 -10.3125 C 2.476562 -11.46875 3.078125 -12.394531 3.984375 -13.09375 C 4.898438 -13.800781 6.023438 -14.15625 7.359375 -14.15625 C 8.828125 -14.15625 10.007812 -13.765625 10.90625 -12.984375 C 11.8125 -12.210938 12.382812 -11.15625 12.625 -9.8125 C 12.707031 -9.445312 12.757812 -9.066406 12.78125 -8.671875 C 12.8125 -8.273438 12.828125 -7.671875 12.828125 -6.859375 C 12.828125 -6.617188 12.71875 -6.5 12.5 -6.5 L 3.515625 -6.5 C 3.441406 -6.5 3.40625 -6.460938 3.40625 -6.390625 C 3.40625 -5.222656 3.445312 -4.429688 3.53125 -4.015625 C 3.738281 -3.128906 4.191406 -2.410156 4.890625 -1.859375 C 5.585938 -1.316406 6.460938 -1.046875 7.515625 -1.046875 Z M 3.59375 -9.984375 C 3.5 -9.628906 3.4375 -8.898438 3.40625 -7.796875 C 3.40625 -7.722656 3.441406 -7.6875 3.515625 -7.6875 L 11.21875 -7.6875 C 11.289062 -7.6875 11.328125 -7.722656 11.328125 -7.796875 C 11.328125 -8.734375 11.28125 -9.429688 11.1875 -9.890625 C 10.988281 -10.773438 10.546875 -11.488281 9.859375 -12.03125 C 9.179688 -12.582031 8.347656 -12.859375 7.359375 -12.859375 C 6.359375 -12.859375 5.523438 -12.59375 4.859375 -12.0625 C 4.203125 -11.539062 3.78125 -10.847656 3.59375 -9.984375 Z M 3.59375 -9.984375 "/></g></g></g><g fill="#f2eee3" fill-opacity="1"><g transform="translate(160.173979, 224.480025)"><g><path d="M 6.25 -62.496094 C 6.25 -23.5 34.25 2.5 68.621094 2.5 C 89.996094 2.5 110.496094 -4.125 116.621094 -13.375 L 116.621094 -27.375 C 106.996094 -13.625 88.246094 0 68.621094 0 C 39.75 0 16.25 -25 16.25 -62.496094 C 16.25 -99.996094 39.75 -124.996094 68.621094 -124.996094 C 89.996094 -124.996094 108.246094 -110.246094 110.121094 -96.246094 C 110.121094 -96.246094 115.746094 -95.996094 115.746094 -103.121094 C 115.746094 -119.246094 91.246094 -127.496094 68.621094 -127.496094 C 34.25 -127.496094 6.25 -101.496094 6.25 -62.496094 Z M 6.25 -62.496094 "/></g></g></g></svg>